<?xml version="1.0" standalone="no"?>
<!DOCTYPE svg PUBLIC "-//W3C//DTD SVG 20010904//EN"
 "http://www.w3.org/TR/2001/REC-SVG-20010904/DTD/svg10.dtd">
<svg version="1.0" xmlns="http://www.w3.org/2000/svg"
 width="400.000000pt" height="400.000000pt" viewBox="0 0 400.000000 400.000000"
 preserveAspectRatio="xMidYMid meet">
<metadata>
Created by potrace 1.14, written by Peter Selinger 2001-2017
</metadata>
<g transform="translate(0.000000,400.000000) scale(0.100000,-0.100000)"
fill="#000000" stroke="none">
<path d="M1339 3905 c-55 -30 -125 -242 -145 -440 -9 -88 -10 -330 -2 -406 4
-41 11 -96 14 -124 3 -27 12 -60 19 -72 8 -11 13 -29 11 -40 -2 -10 -7 -40
-10 -68 -20 -164 -18 -159 -74 -180 -137 -52 -225 -104 -245 -148 -18 -37 -28
-108 -33 -222 -4 -92 -8 -127 -23 -164 -20 -53 -40 -149 -36 -178 2 -17 10
-46 18 -65 13 -31 12 -38 -10 -85 -16 -37 -22 -65 -20 -95 2 -24 -2 -61 -10
-83 -8 -22 -15 -65 -16 -95 -2 -54 -3 -55 -49 -86 -81 -52 -158 -144 -203
-241 -15 -32 -45 -94 -66 -138 -33 -70 -39 -92 -44 -175 -4 -52 -9 -103 -11
-112 -3 -10 -8 -30 -10 -45 -3 -15 -25 -64 -50 -109 -37 -67 -88 -195 -92
-227 -7 -60 -20 -118 -43 -192 -16 -50 -29 -95 -29 -102 0 -10 398 -12 1800
-12 l1800 0 -5 88 c-4 78 -10 102 -61 227 -48 117 -57 150 -60 210 -2 72 -7
86 -67 214 -20 41 -50 111 -67 155 -35 88 -90 201 -139 283 -29 50 -31 56 -20
95 29 108 -21 313 -127 526 l-77 154 18 54 c10 30 38 80 61 111 49 66 83 159
90 244 4 51 10 65 38 91 74 72 82 114 51 256 -5 25 -1 37 25 69 68 85 87 321
34 424 -35 68 -122 138 -202 161 -65 20 -174 15 -241 -12 -77 -29 -89 -17 -90
89 0 44 -3 101 -6 127 -2 27 -7 81 -10 121 -7 87 -17 117 -44 131 -16 9 -26 6
-52 -17 -36 -29 -167 -201 -202 -264 l-22 -39 -55 6 c-30 4 -69 9 -86 11 -129
19 -255 19 -374 -1 -68 -11 -72 -12 -120 -25 -25 -7 -52 -13 -60 -15 -8 -2
-44 -12 -79 -24 -35 -12 -65 -21 -66 -21 -4 0 -75 110 -75 115 0 3 -25 46 -56
96 -66 107 -231 281 -264 279 -3 -1 -17 -7 -31 -15z"/>
</g>
</svg>
